<svg width="33" height="33" viewBox="0 0 33 33" fill="none" xmlns="http://www.w3.org/2000/svg">
<path d="M21.6743 14.5611C21.6743 14.8263 21.569 15.0806 21.3814 15.2682C21.1939 15.4557 20.9395 15.5611 20.6743 15.5611H12.6743C12.4091 15.5611 12.1547 15.4557 11.9672 15.2682C11.7797 15.0806 11.6743 14.8263 11.6743 14.5611C11.6743 14.2959 11.7797 14.0415 11.9672 13.854C12.1547 13.6664 12.4091 13.5611 12.6743 13.5611H20.6743C20.9395 13.5611 21.1939 13.6664 21.3814 13.854C21.569 14.0415 21.6743 14.2959 21.6743 14.5611ZM20.6743 17.5611H12.6743C12.4091 17.5611 12.1547 17.6664 11.9672 17.854C11.7797 18.0415 11.6743 18.2959 11.6743 18.5611C11.6743 18.8263 11.7797 19.0806 11.9672 19.2682C12.1547 19.4557 12.4091 19.5611 12.6743 19.5611H20.6743C20.9395 19.5611 21.1939 19.4557 21.3814 19.2682C21.569 19.0806 21.6743 18.8263 21.6743 18.5611C21.6743 18.2959 21.569 18.0415 21.3814 17.854C21.1939 17.6664 20.9395 17.5611 20.6743 17.5611ZM29.6743 16.5611C29.6748 18.8055 29.0942 21.0118 27.989 22.9653C26.8839 24.9187 25.2918 26.5528 23.3677 27.7084C21.4436 28.864 19.2532 29.5017 17.0095 29.5596C14.7658 29.6175 12.5454 29.0934 10.5643 28.0386L6.30807 29.4573C5.95567 29.5748 5.57752 29.5919 5.21597 29.5066C4.85443 29.4213 4.5238 29.2369 4.26113 28.9743C3.99846 28.7116 3.81413 28.381 3.72881 28.0194C3.64349 27.6579 3.66055 27.2797 3.77807 26.9273L5.19682 22.6711C4.2695 20.9276 3.75156 18.9958 3.68231 17.0223C3.61306 15.0488 3.99432 13.0854 4.79715 11.2812C5.59998 9.47707 6.80328 7.87951 8.31571 6.60981C9.82814 5.34012 11.61 4.43167 13.5259 3.95342C15.4418 3.47517 17.4416 3.43968 19.3733 3.84966C21.305 4.25964 23.1179 5.1043 24.6744 6.31954C26.2309 7.53477 27.4902 9.08864 28.3565 10.8632C29.2228 12.6377 29.6735 14.5863 29.6743 16.5611ZM27.6743 16.5611C27.6738 14.8737 27.2852 13.2091 26.5384 11.696C25.7917 10.1829 24.7068 8.86187 23.3678 7.83511C22.0288 6.80836 20.4716 6.10341 18.8165 5.77481C17.1615 5.4462 15.453 5.50275 13.8234 5.94007C12.1937 6.37739 10.6864 7.18377 9.41826 8.29681C8.15008 9.40986 7.15496 10.7997 6.50989 12.3589C5.86482 13.9181 5.58709 15.6047 5.69818 17.2884C5.80928 18.9721 6.30622 20.6077 7.15057 22.0686C7.22143 22.1912 7.26543 22.3275 7.27966 22.4685C7.29388 22.6094 7.278 22.7517 7.23307 22.8861L5.67432 27.5611L10.3493 26.0023C10.4511 25.9676 10.558 25.9499 10.6656 25.9498C10.8412 25.9501 11.0136 25.9967 11.1656 26.0848C12.8378 27.0523 14.7354 27.5624 16.6674 27.5636C18.5993 27.5648 20.4976 27.0572 22.171 26.0918C23.8445 25.1264 25.2342 23.7372 26.2003 22.0641C27.1664 20.3911 27.6748 18.493 27.6743 16.5611Z" fill="#0F172A"/>
</svg>
