<svg width="25" height="25" viewBox="0 0 25 25" fill="none" xmlns="http://www.w3.org/2000/svg">
<path d="M23.509 4.93531C23.3733 4.72472 23.187 4.55159 22.967 4.43184C22.747 4.31209 22.5004 4.24956 22.2499 4.25H8.82584C8.53692 4.24998 8.25415 4.3334 8.0115 4.49023C7.76885 4.64706 7.57666 4.87063 7.45803 5.13406L1.38303 18.6341C1.28018 18.8624 1.23615 19.1129 1.25497 19.3627C1.27379 19.6125 1.35485 19.8535 1.49076 20.0639C1.62667 20.2743 1.8131 20.4473 2.03304 20.5672C2.25298 20.687 2.49943 20.7499 2.7499 20.75H16.174C16.4629 20.75 16.7457 20.6666 16.9883 20.5098C17.2309 20.3529 17.4231 20.1294 17.5418 19.8659L23.6168 6.36594C23.7197 6.13745 23.7638 5.88681 23.745 5.6369C23.7262 5.38699 23.645 5.14579 23.509 4.93531ZM16.174 19.25H2.7499L8.82584 5.75H22.2499L16.174 19.25Z" fill="#EEEEEE"/>
</svg>
